HIERARCHY
ROOT Hips
{
   OFFSET 0.00000 0.00000 0.00000
   CHANNELS 6 Xposition Yposition Zposition Zrotation Xrotation Yrotation
   JOINT Spine
   {
      OFFSET 0.000000 9.512400 0.000000
      CHANNELS 3 Zrotation Xrotation Yrotation
      JOINT Spine1
      {
         OFFSET -0.000000 20.525920 0.102128
         CHANNELS 3 Zrotation Xrotation Yrotation
         JOINT HEad
         {
            OFFSET 0.000000 6.987328 0.009072
            CHANNELS 3 Zrotation Xrotation Yrotation
            End Site
            {
               OFFSET -0.232000 10.219360 2.011160
            }
         }
         JOINT LeftShoulder1
         {
            OFFSET 7.192000 -0.289800 -0.176000
            CHANNELS 3 Zrotation Xrotation Yrotation
            JOINT LeftArm
            {
               OFFSET 8.226160 -0.002704 0.257696
               CHANNELS 3 Zrotation Xrotation Yrotation
               JOINT LeftForeArm
               {
                  OFFSET 26.213519 0.079312 -1.139472
                  CHANNELS 3 Zrotation Xrotation Yrotation
                  JOINT LeftHand
                  {
                     OFFSET 22.051441 0.068288 0.817728
                     CHANNELS 3 Zrotation Xrotation Yrotation
                     End Site
                     {
                        OFFSET 13.395442 -0.480000 1.202328
                     }
                  }
               }
            }
         }
         JOINT RightShoulder
         {
            OFFSET -7.192000 -0.289800 -0.176000
            CHANNELS 3 Zrotation Xrotation Yrotation
            JOINT RightArm
            {
               OFFSET -8.226160 -0.002704 0.257696
               CHANNELS 3 Zrotation Xrotation Yrotation
               JOINT RightForeArm
               {
                  OFFSET -26.317679 0.079312 -1.139472
                  CHANNELS 3 Zrotation Xrotation Yrotation
                  JOINT RightHand
                  {
                     OFFSET -21.993682 0.068288 0.817728
                     CHANNELS 3 Zrotation Xrotation Yrotation
                     End Site
                     {
                        OFFSET -13.304962 -0.480000 1.202328
                     }
                  }
               }
            }
         }
      }
   }
   JOINT LeftUpLeg
   {
      OFFSET 7.156640 -6.933656 0.081320
      CHANNELS 3 Zrotation Xrotation Yrotation
      JOINT LeftLeg
      {
         OFFSET 0.000000 -35.538158 1.098160
         CHANNELS 3 Zrotation Xrotation Yrotation
         JOINT LeftFoot
         {
            OFFSET -0.202840 -33.673920 -1.168472
            CHANNELS 3 Zrotation Xrotation Yrotation
            JOINT LeftToes
            {
               OFFSET -0.032000 -3.532072 6.799280
               CHANNELS 3 Zrotation Xrotation Yrotation
               End Site
               {
                  OFFSET 0.064000 -0.037960 7.823832
               }
            }
         }
      }
   }
   JOINT RightUpLeg
   {
      OFFSET -7.156640 -6.933656 0.081320
      CHANNELS 3 Zrotation Xrotation Yrotation
      JOINT RightLeg
      {
         OFFSET 0.000000 -35.538158 1.098160
         CHANNELS 3 Zrotation Xrotation Yrotation
         JOINT RightFoot
         {
            OFFSET 0.202840 -33.673920 -1.168472
            CHANNELS 3 Zrotation Xrotation Yrotation
            JOINT RightToes
            {
               OFFSET 0.032000 -3.532072 6.799280
               CHANNELS 3 Zrotation Xrotation Yrotation
               End Site
               {
                  OFFSET -0.064000 -0.109960 7.823832
               }
            }
         }
      }
   }
}
MOTION
Frames: 7
Frame Time: 0.016670
44.665665 77.412671 -113.479994 -9.478302 -25.224252 -52.280894 1.765520 14.294355 38.569556 0.532132 52.496564 -14.976303 -31.265826 8.916032 1.782074 -27.715928 80.887137 14.872520 -127.760150 6.157561 -181.811166 -19.542228 74.556911 -26.981313 -90.508804 -47.101794 -85.842207 16.851728 401.945896 26.240818 105.936295 -30.651362 513.559410 74.302233 96.912816 -16.721732 -13.648978 -1.980776 38.679634 15.823303 11.341520 -34.727414 -10.398915 14.071851 114.804552 -30.384226 39.768708 25.832824 4.705865 24.458311 -26.104148 -27.524745 -4.386049 39.617870 8.697561 19.212801 89.994859 -10.084259 48.893469 -7.601458 50.339355 -24.498123 -45.665750
45.024256 74.998907 -113.919886 -9.960742 -23.188484 -50.086631 0.951743 16.579459 37.367968 -0.859950 49.444416 -17.206790 -31.024936 6.317715 2.222278 -28.501290 75.618520 13.979983 -126.899355 5.162403 -176.102358 -17.710129 72.878043 -31.297665 -84.341771 -48.288840 -90.333247 16.146600 396.419426 22.846139 103.470734 -30.890821 503.704868 62.061845 94.020047 -4.326906 -13.191009 -2.516829 41.376610 17.816294 6.368480 -33.506722 -10.540975 18.541886 115.889691 -26.954052 38.143157 25.368617 3.349440 6.957585 -21.728235 -24.677455 -8.447650 36.341063 6.821863 26.582326 99.077344 -9.326424 45.468562 -6.667623 46.625873 -30.999923 -43.533891
45.609168 71.818055 -114.581154 -9.274448 -19.480307 -45.054885 0.003591 22.744629 35.185412 0.797350 44.679037 -18.709754 -31.760305 1.732137 2.994050 -29.173852 71.849806 14.097947 -127.305369 2.721303 -170.432235 -16.499994 72.992961 -33.808490 -90.023328 -41.689101 -92.941253 16.826624 391.312821 20.440492 102.804756 -28.571972 498.369288 55.962591 92.789554 2.733874 -13.535448 0.881610 44.300378 20.779520 -2.235988 -30.985495 -10.953986 22.851067 115.499592 -23.162701 36.417066 25.096459 -5.473804 13.011755 -29.369889 -22.137932 -14.708415 29.375834 4.484845 32.754404 111.751402 -9.557515 40.590107 -5.405769 41.914187 -36.434804 -41.099048
46.284513 68.496570 -115.430229 -8.344677 -16.186951 -42.021434 -6.098758 30.182391 34.401122 2.393668 37.790009 -22.494466 -32.212856 -3.856687 3.527350 -30.056944 66.031742 13.164360 -128.717961 0.184466 -168.020372 -16.980142 71.923961 -36.839756 -85.665353 -41.611001 -99.082720 19.533438 388.218035 18.316438 101.511596 -25.292527 493.952942 53.819404 93.301081 8.012692 -12.958433 0.630644 48.655935 22.712828 -10.785097 -26.278495 -9.586326 28.670491 110.485973 -19.220356 32.681458 23.646286 -11.102789 7.217819 -32.195166 -17.491331 -22.156886 20.492963 -6.895230 40.535670 131.200899 -10.044981 36.482404 -4.922570 37.870452 -39.865639 -39.245017
46.978726 64.789146 -116.500366 -4.443178 -16.182448 -35.069504 -12.820179 40.116819 36.764374 2.667990 35.941483 -27.152671 -29.825039 -5.443213 2.566506 -31.921634 58.858329 12.840196 -129.542747 -2.145912 -167.198851 -19.103923 71.948728 -40.773818 -87.595243 -36.586332 -103.421529 22.320387 385.501259 17.205503 99.375195 -22.424875 490.239123 55.608463 93.178615 14.482395 -13.761385 1.805762 50.026221 20.012417 -19.605119 -20.429803 -6.019193 35.192355 99.003660 -15.854836 28.536080 20.088713 -16.014951 6.561562 -38.656023 -11.409136 -33.697671 13.159342 -43.118219 54.501716 164.220861 -10.424538 35.313499 -6.029422 35.396465 -40.778190 -38.534264
47.729921 61.039304 -117.725638 -7.563956 -13.137847 -27.517830 -15.052554 49.118571 40.323046 5.363451 31.553684 -33.297589 -27.327792 -5.447030 0.947833 -31.159815 52.335952 10.707826 -128.174647 -4.587165 -167.395929 -19.557743 74.214623 -41.827214 -83.888452 -36.635861 -107.108486 26.785249 381.303151 15.503933 95.249297 -20.604169 485.209262 57.126288 95.201909 14.579155 -17.495897 3.195369 49.351853 21.923772 -27.184243 -15.995770 5.322445 39.153370 82.309455 -13.486868 24.386982 16.336728 -20.820612 2.854340 -42.407309 -24.939085 -39.585621 29.769800 -123.573995 118.984108 210.466378 -9.370747 30.116363 0.416873 28.629165 -43.848896 -34.571276
48.568644 57.510466 -119.082964 -8.002655 -8.212011 -22.453740 -20.010352 57.321256 48.964451 8.710837 25.474674 -38.478625 -24.940547 -5.780973 -1.026113 -28.808491 47.087683 6.757213 -126.047125 -7.733242 -166.658351 -19.069456 77.765658 -41.205555 -84.655113 -33.652673 -108.124756 32.730895 375.403234 12.702106 90.736584 -18.340487 478.233726 56.294344 93.122519 11.984294 -21.912043 2.925482 48.112003 20.952901 -35.706255 -9.952677 20.056060 39.016288 60.983016 -12.693544 21.715319 11.198724 -24.236337 0.977939 -44.920300 -25.382105 -37.262947 41.779553 -142.233253 140.018209 245.844299 -7.133972 14.829681 15.868818 15.617902 -50.689972 -24.190959
